# xmcd CD database file
#
# Track frame offsets:
#	150
#	67565
#	124411
#	172811
#	196036
#	197601
#	244824
#
# Disc length: 3752 seconds
#
# Revision: 0
# Processed by: cddbd v1.5.2PL0 Copyright (c) Steve Scherf et al.
# Submitted via: CDex 1.70beta2
#
DISCID=520ea607
DTITLE=The Humaniversity sound - Just Say Yes - The Love meditation
DYEAR=2001
DGENRE=New Age
TTITLE0=Shower of love
TTITLE1=The love spirit
TTITLE2=Just say Yes
TTITLE3=Tranquility
TTITLE4=The gap
TTITLE5=Benediction
TTITLE6=Friendship
EXTD=YEAR: 2001
EXTT0=
EXTT1=
EXTT2=
EXTT3=
EXTT4=
EXTT5=
EXTT6=
PLAYORDER=
